PathFileType	4	(X/Y/Z)	/Volumes/GoogleDrive/My Drive/Research/Stanford/Projects/Digital Athlete Project/Sprinting/Sprint Simulation/sprinter/subjects/JA1/experimental_data/TRC/run0900cms.trc
DataRate	CameraRate	NumFrames	NumMarkers	Units	OrigDataRate	OrigDataStartFrame	OrigNumFrames
250.000000	250.000000	4	53	mm	250.000000	283	323
Frame#	Time	C7			RSH			LSH			MAN			T7			LARM			LELB			LFOREARM			LWR			RARM			RELB			RFOREARM			RWR			RASI			LASI			SACR			P1			P2			P3			LTHLP			LTHLD			LTHAP			LTHAD			LLEPI			LPAT			LTIAP			LTIAD			LTILAT			LLMAL			LHEEL			LMFS			LMFL			LP1MT			LTOE			LP5MT			RTHLP			RTHLD			RTHAP			RTHAD			RLEPI			RPAT			RTIAP			RTIAD			RTILAT			RLMAL			RHEEL			RMFS			RMFL			RP1MT			RTOE			RP5MT			x52			x53			
		X1	Y1	Z1	X2	Y2	Z2	X3	Y3	Z3	X4	Y4	Z4	X5	Y5	Z5	X6	Y6	Z6	X7	Y7	Z7	X8	Y8	Z8	X9	Y9	Z9	X10	Y10	Z10	X11	Y11	Z11	X12	Y12	Z12	X13	Y13	Z13	X14	Y14	Z14	X15	Y15	Z15	X16	Y16	Z16	X17	Y17	Z17	X18	Y18	Z18	X19	Y19	Z19	X20	Y20	Z20	X21	Y21	Z21	X22	Y22	Z22	X23	Y23	Z23	X24	Y24	Z24	X25	Y25	Z25	X26	Y26	Z26	X27	Y27	Z27	X28	Y28	Z28	X29	Y29	Z29	X30	Y30	Z30	X31	Y31	Z31	X32	Y32	Z32	X33	Y33	Z33	X34	Y34	Z34	X35	Y35	Z35	X36	Y36	Z36	X37	Y37	Z37	X38	Y38	Z38	X39	Y39	Z39	X40	Y40	Z40	X41	Y41	Z41	X42	Y42	Z42	X43	Y43	Z43	X44	Y44	Z44	X45	Y45	Z45	X46	Y46	Z46	X47	Y47	Z47	X48	Y48	Z48	X49	Y49	Z49	X50	Y50	Z50	X51	Y51	Z51	X52	Y52	Z52	X53	Y53	Z53	
283	1.132000	4767.531738	1443.309326	240.289001	4813.390137	1423.636353	421.473755	4810.089844	1429.321655	81.188385	4905.015137	1340.783936	263.217255	4685.887695	1259.738037	252.563843	4870.954102	1227.023071	7.922197	4923.314941	1097.721924	-6.102873	5055.973633	1131.162354	49.248165	5170.996582	1152.797363	102.276031	4685.974121	1307.767212	520.795227	4565.381836	1237.220947	571.996582	4523.092285	1094.381348	587.271729	4464.049805	976.955750	596.602600	4848.628418	965.766907	340.406311	4808.269043	948.182495	133.940598	4663.139648	1025.434814	291.089844	4635.339844	1003.612488	243.076492	4652.467285	994.998901	346.195862	4608.517090	947.981079	296.369354	4610.339844	683.821228	85.612823	4578.613770	574.436340	96.687134	4741.747559	625.885986	127.725060	4689.452148	526.290283	137.254776	4540.439453	456.745728	114.809654	4623.255371	416.874847	153.655899	4455.591309	315.001526	203.980927	4348.564453	227.782639	225.860748	4363.529785	300.351410	148.403122	4207.900391	148.818527	198.721054	4152.188477	168.824997	252.950592	4294.789063	81.298653	238.685883	4241.686523	70.351212	187.704590	4322.674316	16.847464	278.384094	4346.696289	22.358948	240.952133	4267.728027	7.781593	163.254181	4890.967773	759.368286	453.233795	4989.406250	699.465271	444.240265	4995.831055	823.922058	368.118164	5068.541504	758.642212	358.942719	5074.120117	600.950562	399.576050	5154.561035	598.661865	336.374176	4894.759766	547.951050	307.305206	4766.067871	546.373718	297.959717	4873.976562	583.128357	389.113312	4640.181641	548.583801	358.853271	4604.830566	620.214661	314.709198	4640.201660	447.116455	306.820374	4602.287109	482.874603	363.188965	4590.536621	387.742828	262.756256	4611.849121	367.800262	306.126160	4563.289062	406.598755	382.221497	4431.031250	911.287231	601.820740	5229.457031	1163.793335	129.227448
284	1.136000	4805.156250	1443.637939	241.174438	4848.079590	1426.177612	421.901855	4848.086914	1431.770630	84.135681	4942.011719	1343.023926	266.554260	4725.319336	1258.577148	250.325500	4914.311035	1231.064819	11.598215	4970.137695	1104.364136	-2.139411	5100.415527	1148.256348	54.614441	5212.660645	1180.537720	108.197639	4716.472168	1317.931152	521.006958	4592.895020	1251.700562	570.837769	4547.096191	1109.933228	585.933167	4485.864746	993.487793	593.920471	4890.067383	966.669739	341.248260	4852.572266	942.378113	135.761200	4705.604004	1025.121582	288.275604	4678.094238	1002.943970	240.548782	4693.512695	995.203247	343.365631	4650.151367	947.845581	293.162842	4641.024414	689.102905	85.257904	4600.604492	582.602722	96.863663	4768.045410	625.812195	129.097534	4709.613281	529.779358	135.672424	4555.499512	467.062958	115.375435	4637.093750	424.045746	152.221939	4468.725098	324.096649	201.713470	4361.749512	236.477158	222.170441	4376.331055	311.912994	146.331345	4220.539551	158.950714	194.294754	4167.339844	182.329208	248.192368	4302.637695	83.013016	235.228134	4249.252441	75.131165	184.837204	4322.901855	17.657988	278.283203	4346.169434	22.897089	240.666733	4269.289062	8.959655	162.455856	4933.902344	763.905579	451.937073	5035.749023	708.665955	441.427368	5037.320801	835.678284	369.233398	5112.660645	773.538208	358.135925	5127.016113	614.494507	396.696533	5206.893066	616.865662	333.095245	4950.589844	545.366577	306.587067	4822.429199	532.519592	297.564087	4926.646973	580.557617	387.348755	4696.441895	525.056824	358.008301	4654.779297	592.009338	313.998810	4706.017090	422.752411	308.206848	4665.475586	455.883606	364.182068	4662.337891	356.935699	265.284698	4685.601563	341.371735	308.814148	4633.935547	376.477386	384.550934	4451.622070	928.367371	598.387268	5269.708984	1196.944702	135.431305
285	1.140000	4842.604980	1443.657471	242.071365	4883.045410	1428.572144	422.057129	4885.673340	1433.667480	87.112549	4979.235352	1345.032349	269.846283	4764.876465	1257.188599	247.886703	4957.132324	1234.953003	15.230930	5016.641602	1110.911743	1.780361	5143.245117	1165.327515	59.767910	5251.907715	1207.800171	113.813843	4747.394531	1328.329102	521.027771	4621.009277	1266.354004	569.072266	4572.030762	1125.545166	584.469055	4508.759277	1009.957703	591.149780	4935.478027	967.596130	342.135132	4896.699707	938.414368	137.904526	4748.289063	1024.796875	285.382965	4720.757813	1002.514160	237.765167	4734.719727	995.236938	340.575745	4692.048340	947.850525	290.726715	4672.165039	695.318298	84.959671	4624.502930	591.846558	96.838364	4795.819336	627.960022	130.822906	4729.852539	533.806641	135.264221	4572.404785	479.193848	116.356056	4651.070312	432.214752	152.027267	4484.122559	334.747345	199.382111	4377.616211	246.166016	217.819794	4390.849121	324.946533	144.506577	4236.218750	169.196396	189.173050	4185.578613	196.601456	243.375366	4312.046387	84.802643	231.315552	4257.437988	81.370415	181.663162	4323.815918	19.123043	277.719391	4347.388672	23.462049	239.828598	4271.639160	11.344539	160.884460	4981.931152	769.658630	451.204529	5081.419434	717.285461	438.514893	5078.381836	846.551025	370.353088	5156.076660	787.286621	357.379791	5177.536133	627.514099	393.912781	5257.608887	634.291382	330.268341	5006.395996	542.618713	306.739227	4881.364258	518.692871	296.686981	4983.603516	578.103638	384.708038	4754.920410	501.343109	357.780243	4707.392578	563.273071	313.228699	4773.647949	399.737885	309.236816	4730.615234	429.722839	365.137390	4737.593750	331.176086	267.849091	4761.332520	316.614716	311.589874	4706.483398	347.659271	386.900665	4473.375488	945.317078	594.885864	5307.135254	1229.386963	141.282700
286	1.144000	4879.875488	1443.366333	242.662018	4918.343262	1430.617920	421.940918	4922.750000	1434.865723	90.179268	5016.312012	1346.703491	272.792023	4804.432617	1255.620972	245.385727	4999.890625	1238.787476	18.621592	5062.571289	1117.480713	5.762196	5185.118164	1182.181641	64.318039	5289.083496	1234.334106	118.925713	4779.043457	1338.767822	520.494995	4649.861328	1280.901733	566.766602	4598.208984	1141.128540	582.939148	4532.937500	1026.144165	588.491821	4977.129883	966.367188	343.528778	4940.124023	935.797363	139.924469	4791.136230	1024.453979	282.320435	4761.445801	1002.583618	232.853561	4776.641113	995.180847	339.053986	4733.147461	948.244446	287.723755	4703.863281	702.412903	84.868629	4650.444336	601.625122	97.205132	4825.937500	630.053101	132.529099	4753.015137	538.326050	137.226349	4591.407227	492.971344	118.100067	4666.557129	441.534790	153.463165	4501.463867	345.794586	198.239273	4395.939941	256.590027	213.506119	4407.556152	338.998016	142.817383	4255.344238	180.203064	183.080322	4207.260254	212.364960	238.212982	4322.143066	88.394463	227.391327	4267.618652	89.419991	177.686432	4324.279785	21.690775	276.850311	4349.315430	23.992945	238.329300	4274.685059	17.090063	158.580063	5025.739258	775.483704	450.285828	5126.559082	725.700562	435.799866	5119.266602	856.411194	371.148224	5199.269043	799.876709	356.556610	5227.814453	639.809265	392.368286	5306.961914	650.588074	328.130310	5062.918945	539.467957	306.695007	4940.267578	504.500977	296.837189	5037.287598	574.858643	383.204285	4814.958008	478.050415	357.471771	4762.020996	534.643494	312.791260	4843.026855	377.580597	310.814362	4797.879883	404.409180	366.340759	4814.700684	305.442810	270.608063	4838.521973	293.712677	314.617279	4781.117188	320.935944	389.402130	4496.435547	961.840759	591.597046	5341.923828	1260.840576	146.680069
